<svg xmlns="http://www.w3.org/2000/svg" class=" " viewBox="0 0 1600 800"><path d="M1387.705,606.061C1394.666,609.421,1406.281,608.885,1415.075,608.312C1423.411,607.77,1433.387,606.869,1439.196,603.118C1443.937,600.057,1450.128,593.523,1448.962,589.899C1447.245,584.565,1425.584,580.022,1415.075,578.982C1406.295,578.113,1397.391,579.21,1390.381,581.818C1384.29,584.084,1375.319,588.34,1374.874,592.381C1374.429,596.422,1381.952,603.283,1387.705,606.061" stroke="#71717a" stroke-width="2" fill="none" stroke-linecap="round" stroke-miterlimit="4"></path><path d="M1293.727,614.141C1299.92,621.102,1310.786,626.083,1324.131,630.303C1345.902,637.188,1385.035,642.477,1415.075,641.641C1444.826,640.813,1482.974,634.177,1503.518,625.579C1516.138,620.297,1526.318,613.261,1531.261,606.061C1534.725,601.014,1536.03,595.146,1535.311,589.899C1534.551,584.355,1530.703,578.634,1526.101,573.737C1520.307,567.572,1512.559,562.012,1501.435,557.576C1483.16,550.287,1450.021,543.475,1423.116,543.409C1394.536,543.34,1356.227,552.049,1334.673,558.962C1321.371,563.228,1312.079,567.182,1303.823,573.737C1296.378,579.649,1287.546,588.158,1286.432,595.449C1285.486,601.641,1288.998,608.828,1293.727,614.141" stroke="#71717a" stroke-width="2" fill="none" stroke-linecap="round" stroke-miterlimit="4"></path><path d="M1237.317,614.141C1242.107,623.913,1257.22,631.741,1270.352,638.122C1286.073,645.762,1307.074,650.4,1326.633,654.106C1347.191,658.001,1365.836,660.542,1390.955,660.416C1426.523,660.236,1486.812,655.555,1519.787,646.465C1541.875,640.376,1560.695,632.205,1572.631,622.222C1581.139,615.107,1588.272,606.378,1589.501,597.98C1590.643,590.173,1586.659,581.139,1581.538,573.737C1575.235,564.627,1563.211,556.399,1551.418,549.495C1537.792,541.518,1520.412,534.843,1503.518,530.275C1485.78,525.479,1466.668,522.815,1447.236,521.965C1426.556,521.06,1404.224,522.679,1382.915,525.774C1361.34,528.907,1339.143,534.004,1318.593,540.785C1298.578,547.39,1275.381,556.479,1261.082,565.657C1251.057,572.091,1242.068,577.915,1238.191,586.269C1234.502,594.217,1233.358,606.065,1237.317,614.141" stroke="#71717a" stroke-width="2" fill="none" stroke-linecap="round" stroke-miterlimit="4"></path><path d="M1596,640.907C1596,640.907,1525.492,665.1,1486.708,670.707C1444.215,676.851,1394.352,677.975,1350.754,673.558C1309.365,669.364,1256.421,656.558,1231.235,646.465C1218.472,641.35,1211.447,637.241,1204.234,630.303C1197.315,623.649,1189.445,614.402,1188.41,606.061C1187.437,598.211,1191.046,589.417,1196.753,581.818C1204.779,571.133,1221.884,561.319,1238.191,552.62C1258.214,541.939,1285.333,532.684,1309.542,525.253C1333.58,517.874,1355.649,511.384,1382.915,508.118C1416.241,504.126,1459.567,500.837,1495.477,507.102C1530.519,513.215,1596,544.304,1596,544.304" stroke="#71717a" stroke-width="2" fill="none" stroke-linecap="round" stroke-miterlimit="4"></path><path d="M1596,663.022C1596,663.022,1509.292,683.514,1463.317,687.106C1414.376,690.93,1357.373,689.936,1310.553,683.5C1269.547,677.864,1224.062,666.286,1196.974,654.545C1180.183,647.267,1167.644,639.66,1159.016,630.303C1152.282,623,1146.199,614.73,1146.168,606.061C1146.132,596.068,1154.657,582.851,1163.005,573.737C1172.289,563.602,1185.43,557.405,1201.005,549.495C1222.884,538.384,1255.318,526.468,1283.859,517.172C1313.221,507.608,1342.653,498.312,1374.874,493.175C1410.14,487.552,1450.594,482.533,1487.437,486.593C1524.303,490.656,1596,517.565,1596,517.565" stroke="#71717a" stroke-width="2" fill="none" stroke-linecap="round" stroke-miterlimit="4"></path><path d="M1351.507,169.697C1351.499,177.544,1353.801,186.17,1359.63,193.939C1368.387,205.613,1392.118,220.714,1407.035,226.854C1418.256,231.473,1428.465,232.376,1439.196,232.51C1449.905,232.645,1461.748,231.296,1471.357,227.685C1480.376,224.295,1489.531,218.416,1495.477,212.222C1500.589,206.896,1504.74,201.538,1506.169,193.939C1508.156,183.378,1506.842,165.034,1499.757,153.535C1491.558,140.226,1471.934,126.879,1455.276,121.52C1438.396,116.089,1415.536,116.623,1398.995,121.596C1383.696,126.195,1366.347,138.29,1358.794,148.089C1353.596,154.833,1351.514,162.286,1351.507,169.697" stroke="#71717a" stroke-width="2" fill="none" stroke-linecap="round" stroke-miterlimit="4"></path><path d="M1596,680.193C1596,680.193,1491.891,698.775,1439.196,700.906C1386.029,703.055,1320.228,698.187,1278.392,692.777C1251.17,689.257,1233.252,685.129,1211.67,678.788C1190.389,672.535,1166.835,664.403,1149.749,655.134C1136.118,647.738,1123.311,639.623,1115.642,630.303C1109.537,622.883,1104.621,614.197,1104.363,606.061C1104.109,598.034,1107.742,589.602,1113.825,581.818C1122.744,570.406,1140.435,559.756,1159.467,549.495C1186.21,535.076,1226.966,521.208,1262.312,509.278C1298.704,496.995,1337.016,484.144,1374.874,477.122C1412.07,470.222,1450.503,464.17,1487.437,467.128C1524.206,470.072,1596,494.661,1596,494.661" stroke="#71717a" stroke-width="2" fill="none" stroke-linecap="round" stroke-miterlimit="4"></path><path d="M1307.528,177.778C1309.742,188.985,1316.278,200.073,1324.363,210.101C1333.885,221.91,1348.578,233.636,1363.22,242.424C1378.633,251.676,1397.793,259.249,1415.075,263.578C1431.158,267.606,1447.487,269.461,1463.317,268.588C1478.93,267.728,1495.676,264.588,1509.426,258.586C1522.452,252.9,1535.38,244.243,1544.142,234.343C1552.288,225.141,1558.575,213.789,1561.293,202.02C1564.15,189.65,1563.206,173.99,1559.922,161.616C1556.799,149.853,1551.009,139.329,1542.888,129.293C1533.345,117.498,1517.94,105.037,1504.136,96.97C1491.296,89.466,1477.742,84.535,1463.317,81.484C1448.142,78.276,1430.314,77.366,1415.075,78.869C1400.952,80.262,1387.894,83.752,1374.874,89.169C1361.051,94.92,1345.673,103.409,1334.691,113.131C1324.613,122.054,1314.984,133.014,1310.553,144.282C1306.459,154.692,1305.401,167.012,1307.528,177.778" stroke="#71717a" stroke-width="2" fill="none" stroke-linecap="round" stroke-miterlimit="4"></path><path d="M1596,695.266C1596,695.266,1481.117,712.014,1423.116,713.05C1364.535,714.096,1300.102,710.926,1246.231,701.218C1199.211,692.745,1146.335,676.252,1116.804,662.626C1099.836,654.797,1088.886,648.396,1079.38,638.384C1070.685,629.225,1060.868,616.869,1060.748,606.061C1060.629,595.32,1069.008,583.373,1078.437,573.737C1090.94,560.961,1108.406,553.185,1134.581,541.414C1187.205,517.748,1317.168,473.14,1382.915,458.331C1424.603,448.941,1452.454,443.638,1487.437,445.703C1523.474,447.829,1596,472.055,1596,472.055" stroke="#71717a" stroke-width="2" fill="none" stroke-linecap="round" stroke-miterlimit="4"></path><path d="M1596,231.581C1596,231.581,1579.049,255.841,1567.839,265.061C1556.353,274.508,1542.079,281.895,1527.638,287.288C1512.675,292.877,1495.557,296.432,1479.397,297.56C1463.395,298.676,1447.645,297.421,1431.156,294.154C1412.896,290.535,1392.963,283.869,1374.874,275.455C1356.204,266.769,1336.394,255.268,1321.01,242.424C1306.763,230.529,1292.904,216.452,1284.886,202.02C1277.819,189.301,1272.804,175.001,1273.062,161.616C1273.321,148.234,1279.164,133.696,1286.432,121.719C1294.058,109.152,1306.013,98.31,1318.593,88.386C1332.425,77.475,1349.565,66.827,1366.834,59.958C1384.369,52.983,1404.99,48.19,1423.116,47.1C1439.73,46.1,1455.148,48.243,1471.357,52.154C1488.929,56.395,1508.113,63.8,1524.527,72.727C1540.662,81.502,1556.912,92.801,1569.136,105.051C1580.296,116.234,1596,142.292,1596,142.292" stroke="#71717a" stroke-width="2" fill="none" stroke-linecap="round" stroke-miterlimit="4"></path><path d="M1596,709.111C1596,709.111,1469.691,724.275,1407.035,724.49C1345.069,724.703,1272.258,718.532,1222.111,710.719C1186.993,705.247,1160.516,698.146,1133.668,689.563C1110.219,682.066,1087.532,673.181,1069.347,663.567C1054.642,655.793,1041.318,648.572,1031.618,638.384C1022.778,629.099,1012.481,616.897,1012.264,606.061C1012.049,595.347,1021.138,582.792,1029.899,573.737C1039.877,563.425,1049.876,559.302,1071.049,549.495C1130.204,522.096,1346.551,443.648,1423.116,426.883C1458.754,419.079,1476.055,416.415,1503.518,419.14C1533.554,422.12,1596,447.12,1596,447.12" stroke="#71717a" stroke-width="2" fill="none" stroke-linecap="round" stroke-miterlimit="4"></path><path d="M1596,286.562C1596,286.562,1567.248,305.987,1551.759,312.945C1536.407,319.84,1519.044,325.637,1503.518,328.218C1489.677,330.518,1477.221,330.667,1463.317,329.133C1447.859,327.428,1431.582,322.961,1415.075,317.2C1396.46,310.704,1376.728,301.789,1357.601,290.909C1336.52,278.919,1311.917,263.21,1294.472,247.228C1279.212,233.247,1265.227,217.542,1256.952,202.02C1249.945,188.877,1245.259,175.115,1245.036,161.616C1244.813,148.179,1249.142,133.856,1255.512,121.212C1262.427,107.486,1273.656,95.198,1286.432,82.949C1301.677,68.334,1323.99,51.638,1342.714,41.263C1358.821,32.338,1374.582,25.884,1390.955,22.301C1406.763,18.843,1423.2,18.325,1439.196,19.582C1455.363,20.852,1470.78,24.588,1487.437,30.021C1506.622,36.278,1528.833,46.121,1547.286,56.566C1564.885,66.527,1596,90.805,1596,90.805" stroke="#71717a" stroke-width="2" fill="none" stroke-linecap="round" stroke-miterlimit="4"></path><path d="M442.834,444.444C444.629,447.879,448.17,449.817,453.225,452.525C463.169,457.854,484.268,464.702,501.532,468.687C520.55,473.077,546.25,477.913,562.814,476.752C574.383,475.942,589.173,474.428,591.868,468.687C594.398,463.297,587.825,451.579,580.976,444.444C571.012,434.065,548.412,423.965,530.653,419.313C512.879,414.657,490.159,413.198,474.372,416.541C461.752,419.214,445.874,426.423,442.211,432.739C440.121,436.342,441.14,441.203,442.834,444.444" stroke="#71717a" stroke-width="2" fill="none" stroke-linecap="round" stroke-miterlimit="4"></path><path d="M1596,722.328C1596,722.328,1452.152,736.33,1382.915,735.494C1316.968,734.698,1241.637,727.207,1189.95,718.888C1154.539,713.188,1129.253,706.34,1101.508,697.868C1075.933,690.059,1050.92,681.349,1029.205,670.707C1009.806,661.2,989.909,650.603,976.718,638.384C966.098,628.546,955.128,616.507,953.228,606.061C951.721,597.774,954.656,589.052,959.9,581.818C966.831,572.258,977.501,566.967,996.516,557.576C1047.979,532.158,1230.686,480.909,1300.545,452.525C1338.515,437.098,1365.308,424.96,1386.554,412.121C1400.366,403.774,1412.881,396.102,1418.577,387.879C1422.267,382.551,1424.109,376.943,1423.378,371.717C1422.6,366.147,1419.412,362.174,1413.098,355.556C1396.012,337.642,1327.044,297.889,1298.405,274.747C1279.743,259.669,1266.315,247.679,1254.638,234.343C1245.126,223.481,1237.637,213.211,1231.898,202.02C1226.557,191.606,1222.003,181.231,1220.657,169.697C1219.191,157.131,1220.42,142.282,1224.807,129.293C1229.544,115.266,1238.636,102.42,1249.524,88.889C1263.08,72.04,1284.166,52.573,1302.513,38.048C1319.459,24.632,1355.102,4,1355.102,4" stroke="#71717a" stroke-width="2" fill="none" stroke-linecap="round" stroke-miterlimit="4"></path><path d="M1596,413.135C1596,413.135,1570.451,396.22,1564.733,387.879C1561.017,382.459,1558.219,377.863,1559.545,371.717C1561.918,360.722,1596,331.443,1596,331.443" stroke="#71717a" stroke-width="2" fill="none" stroke-linecap="round" stroke-miterlimit="4"></path><path d="M1596,60.963L1483.122,4" stroke="#71717a" stroke-width="2" fill="none" stroke-linecap="round" stroke-miterlimit="4"></path><path d="M275.685,444.444C276.093,449.996,278.401,455.615,283.877,460.606C294.323,470.127,316.352,476.591,345.185,484.848C408.077,502.861,589.945,534.626,653.72,541.414C682.048,544.429,699.852,546.136,715.578,543.318C725.879,541.471,737.168,539.593,740.182,533.333C743.577,526.281,737.205,512.8,730.611,501.01C720.023,482.079,694.331,456.475,672.517,436.364C649.417,415.067,620.446,392.629,594.975,377.31C573.261,364.251,551.876,352.96,530.653,347.649C511.719,342.912,493.65,342.836,474.372,344.363C453.536,346.014,432.917,351.279,410.05,358.507C382.281,367.284,343.466,382.264,320.436,395.96C303.899,405.793,288.272,417.474,281.407,427.334C277.286,433.253,275.279,438.905,275.685,444.444" stroke="#71717a" stroke-width="2" fill="none" stroke-linecap="round" stroke-miterlimit="4"></path><path d="M1596,735.236C1596,735.236,1429.16,748.312,1350.754,746.024C1278.21,743.906,1197.819,734.25,1141.709,724.559C1103.133,717.896,1075.764,710.349,1045.226,700.975C1016.669,692.209,989.174,682.872,963.813,670.707C939.662,659.122,914.825,645.13,896.195,630.303C880.487,617.801,862.139,601.128,857.41,589.899C854.869,583.865,854.946,577.86,856.888,573.737C858.645,570.01,860.866,568.877,867.346,565.657C900.738,549.061,1129.242,499.859,1206.03,473.886C1246.867,460.073,1271.385,450.713,1297.906,436.364C1320.357,424.216,1345.927,409.375,1356.434,395.96C1362.778,387.86,1365.884,379.743,1365.621,371.717C1365.354,363.58,1361.864,357.399,1354.565,347.475C1336.823,323.35,1262.27,270.384,1237.278,242.424C1223.252,226.733,1215.387,215.209,1208.526,202.02C1202.821,191.052,1198.788,180.667,1197.061,169.697C1195.373,158.984,1195.38,148.175,1197.99,136.998C1201.018,124.028,1206.115,112.088,1216.365,96.97C1233.865,71.156,1304.936,4,1304.936,4" stroke="#71717a" stroke-width="2" fill="none" stroke-linecap="round" stroke-miterlimit="4"></path><path d="M1596,37.244L1535.948,4" stroke="#71717a" stroke-width="2" fill="none" stroke-linecap="round" stroke-miterlimit="4"></path><path d="M1596,748.089C1596,748.089,1401.591,760.278,1310.553,756.145C1226.517,752.331,1140.237,740.734,1068.951,727.273C1011.038,716.337,963.98,705.317,913.523,686.869C862.224,668.113,806.443,632.767,763.819,615.157C733.284,602.541,716.525,596.967,683.417,587.001C631.766,571.453,553.008,550.105,482.412,536.12C405.516,520.887,284.509,512.808,238.93,501.01C220.42,496.219,210.71,492.965,201.005,486.59C193.39,481.588,186.877,475.025,183.582,468.687C180.909,463.544,180.104,458.396,180.526,452.525C181.053,445.197,183.023,436.506,188.842,428.283C198.115,415.177,216.806,401.256,239.873,387.879C277.663,365.963,352.336,338.564,402.01,322.86C442.425,310.084,486.394,298.035,514.573,296.386C531.242,295.41,542.373,297.538,554.774,300.991C566.368,304.219,572.691,306.599,586.935,315.705C624.313,339.6,721.06,440.85,771.859,474.188C802.641,494.389,826.318,505.944,852.261,513.323C874.321,519.597,893.435,519.779,916.583,519.856C943.717,519.947,973.416,516.347,1005.025,511.47C1042.271,505.723,1087.137,496.038,1125.628,485.559C1161.995,475.658,1199.208,464.379,1230.151,450.924C1256.672,439.393,1285.053,424.963,1301.125,412.121C1311.285,404.003,1318.465,395.627,1322.509,387.879C1325.41,382.32,1327.199,378.15,1326.451,371.717C1325.216,361.098,1317.188,346.871,1305.887,331.313C1285.425,303.146,1222.804,257.682,1200.771,226.263C1186.489,205.896,1177.942,186.296,1174.32,169.697C1171.714,157.755,1172.597,147.976,1174.568,137.374C1176.605,126.415,1179.24,118.049,1186.733,105.051C1201.304,79.776,1269.441,4,1269.441,4" stroke="#71717a" stroke-width="2" fill="none" stroke-linecap="round" stroke-miterlimit="4"></path><path d="M721.465,796C721.465,796,686.711,788.496,667.337,788.141C644.988,787.731,594.975,795.95,594.975,795.95" stroke="#71717a" stroke-width="2" fill="none" stroke-linecap="round" stroke-miterlimit="4"></path><path d="M1595.997,16.162L1574.875,4" stroke="#71717a" stroke-width="2" fill="none" stroke-linecap="round" stroke-miterlimit="4"></path><path d="M1596,761.145C1596,761.145,1379.644,771.281,1262.312,766.109C1130.634,760.304,909.754,738.22,844.221,722.899C823.286,718.004,819.532,716.334,804.02,707.934C778.395,694.059,742.681,657.678,709.858,638.384C678.254,619.806,649.047,606.89,611.055,593.468C562.899,576.456,504.868,561.107,442.211,549.902C365.905,536.256,233.477,534.698,184.925,523.725C165.013,519.225,154.996,516.285,143.964,509.091C134.299,502.788,125.517,493.637,121.006,484.848C117.127,477.291,116.045,469.231,116.338,460.606C116.679,450.569,120.043,437.836,124.873,428.283C129.533,419.065,136.399,411.356,144.396,404.04C153.356,395.844,160.055,391.084,176.884,382.334C222.985,358.366,383.638,296.901,450.251,276.343C487.323,264.902,514.856,257.064,538.693,255.746C554.61,254.866,566.53,256.855,578.894,260.526C590.533,263.982,597.318,266.597,611.055,276.416C645.589,301.099,732.789,403.972,771.859,436.196C791.679,452.544,803.528,460.176,820.101,468.999C835.743,477.326,850.308,483.574,868.342,488.335C889.718,493.979,915.902,497.275,940.704,498.168C966.753,499.107,992.677,496.762,1021.106,493.092C1053.794,488.872,1092.928,481.219,1125.628,472.586C1155.485,464.704,1184.003,456.396,1209.845,444.444C1234.078,433.237,1263.808,415.583,1276.662,404.04C1283.218,398.152,1286.235,394.199,1288.979,387.879C1291.997,380.927,1294.374,372.075,1293.09,363.636C1291.531,353.39,1285.863,344.552,1276.671,331.313C1257.741,304.052,1192.348,247.629,1172.57,218.182C1161.913,202.315,1157.137,190.796,1153.598,177.778C1150.58,166.676,1148.915,157.499,1150.621,145.455C1152.955,128.977,1161.393,108.756,1172.774,88.889C1187.954,62.392,1239.641,4,1239.641,4" stroke="#71717a" stroke-width="2" fill="none" stroke-linecap="round" stroke-miterlimit="4"></path><path d="M820.561,796C820.561,796,807.473,762.569,795.98,754.087C785.384,746.267,772.656,745.532,755.779,744.625C727.808,743.123,681.672,750.753,643.216,758.631C601.439,767.189,514.573,795.671,514.573,795.671" stroke="#71717a" stroke-width="2" fill="none" stroke-linecap="round" stroke-miterlimit="4"></path><path d="M461.925,796C461.925,796,615.528,740.545,647.298,719.192C660.396,710.389,668.299,703.822,671.283,694.949C673.811,687.436,671.629,678.269,668.088,670.707C663.976,661.926,654.996,654.189,645.737,646.465C634.27,636.898,621.522,628.362,603.015,619.405C573.596,605.166,522.368,587.276,482.412,577.162C444.673,567.61,412.913,563.602,369.849,559.122C312.633,553.169,214.988,556.177,168.844,549.384C144.072,545.737,127.225,542.094,112.563,535.376C101.751,530.422,93.639,525.181,86.812,517.172C79.516,508.614,73.637,496.565,70.941,484.848C68.086,472.438,68.208,457.607,71.109,444.444C74.151,430.64,81.11,415.033,89.622,404.04C97.537,393.819,107.547,387.205,119.439,379.798C134.044,370.701,146.896,366.2,172.09,355.556C233.216,329.73,421.299,251.785,490.452,232.808C522.524,224.007,542.202,220.716,562.814,220.562C578.159,220.446,589.957,222.476,603.015,226.745C616.797,231.25,627.714,235.112,643.216,247.638C675.165,273.455,732.892,363.026,765.844,395.96C784.765,414.87,797.444,424.912,814.768,436.364C831.66,447.53,849.831,457.194,868.342,464.111C886.476,470.888,904.536,474.995,924.623,477.726C947.085,480.781,971.705,481.304,996.985,480.113C1025.038,478.791,1056.84,474.5,1085.427,468.808C1113.063,463.306,1140.455,456.601,1165.829,446.908C1190.339,437.545,1218.537,426.686,1235.364,412.121C1248.751,400.533,1261.525,385.695,1263.465,371.717C1265.272,358.692,1258.716,347.076,1249.539,331.313C1232.302,301.702,1169.806,251.003,1149.824,218.182C1137.147,197.359,1129.302,180.7,1127.801,161.616C1126.336,142.979,1130.966,125.571,1140.115,105.051C1153.536,74.95,1212.937,4,1212.937,4" stroke="#71717a" stroke-width="2" fill="none" stroke-linecap="round" stroke-miterlimit="4"></path><path d="M900.503,795.813C900.503,795.813,925.165,778.421,940.704,773.342C959.135,767.318,975.568,766.518,1005.025,765.447C1069.025,763.12,1210.416,779.126,1310.553,780.569C1407.294,781.963,1596,774.68,1596,774.68" stroke="#71717a" stroke-width="2" fill="none" stroke-linecap="round" stroke-miterlimit="4"></path><path d="M418.09,795.863C418.09,795.863,561.333,733.746,587.743,711.111C598.197,702.15,603.521,695.92,604.936,686.869C606.448,677.201,602.436,664.629,594.703,654.545C583.205,639.55,555.754,625.175,531.536,614.141C503.361,601.305,467.503,592.214,434.171,585.515C400.239,578.695,369.494,576.374,329.648,573.891C276.808,570.6,190.235,576.953,144.724,571.363C117.521,568.021,97.419,564.668,80.402,556.25C66.895,549.569,56.121,541.146,48.241,529.816C39.818,517.705,35.017,500.934,32.711,484.848C30.194,467.298,30.693,445.077,35.412,428.283C39.666,413.139,46.41,399.382,57.488,387.879C70.459,374.411,87.102,366.964,111.694,355.556C156.921,334.574,249.913,311.839,313.568,286.18C373.021,262.215,442.774,222.288,482.412,207.652C502.969,200.062,514.424,196.806,530.653,194.193C546.59,191.626,562.565,190.734,578.894,191.91C596.036,193.146,614.787,196.19,631.143,202.02C647.18,207.736,660.051,211.917,676.196,226.263C706.281,252.994,748.497,338.124,778.195,371.717C796.473,392.393,810.937,404.386,828.141,416.819C843.764,428.11,859.221,437.057,876.382,444.258C894.003,451.652,913.09,456.851,932.663,460.286C953.209,463.892,974.923,465.031,996.985,464.797C1020.405,464.549,1045.372,462.164,1069.347,458.177C1093.617,454.142,1118.702,448.783,1141.709,440.599C1164.216,432.592,1189.973,423.063,1206.03,409.902C1219.168,399.135,1232.089,385.289,1234.633,371.717C1237.019,358.991,1231.715,346.815,1223.352,331.313C1208.108,303.055,1151.98,258.55,1131.736,226.263C1117.361,203.338,1106.087,182.748,1104.183,161.616C1102.453,142.417,1107.877,125.622,1117.021,105.051C1130.366,75.024,1188.142,4,1188.142,4" stroke="#71717a" stroke-width="2" fill="none" stroke-linecap="round" stroke-miterlimit="4"></path><path d="M1008.006,796C1008.006,796,1047.237,790.472,1077.387,789.334C1133.48,787.218,1235.381,794.174,1318.593,794.249C1407.83,794.33,1596,789.097,1596,789.097" stroke="#71717a" stroke-width="2" fill="none" stroke-linecap="round" stroke-miterlimit="4"></path><path d="M4,411.677C4,411.677,14.343,387.639,24.121,377.795C35.811,366.025,49.44,359.273,72.362,348.705C120.238,326.63,234.185,300.904,305.528,271.071C369.641,244.261,432.47,197.334,482.412,181.059C515.964,170.126,542.085,166.73,570.854,166.848C598.303,166.96,627.164,172.47,651.256,180.441C672.815,187.573,694.38,198.32,709.427,210.101C721.605,219.635,727.166,227.651,737.427,242.424C755.245,268.077,778.913,328.334,799.277,355.556C812.826,373.667,825.12,384.285,839.589,395.96C853.57,407.242,868.094,416.982,884.422,424.782C901.644,433.01,921.719,439.35,940.704,443.436C959.25,447.428,977.215,448.97,996.985,449.308C1018.934,449.683,1043.863,448.007,1066.565,444.444C1088.909,440.938,1111.484,436.421,1132.17,428.283C1152.682,420.213,1178.53,406.064,1190.219,395.96C1196.688,390.367,1199.841,386.122,1202.586,379.798C1205.603,372.848,1208.125,364.382,1206.645,355.556C1204.62,343.482,1195.585,331.102,1184.666,315.152C1165.778,287.561,1112.637,241.36,1095.753,210.101C1084.699,189.635,1078.655,172.337,1078.993,153.535C1079.333,134.626,1087.595,117.307,1097.993,96.97C1112.385,68.819,1164.53,4,1164.53,4" stroke="#71717a" stroke-width="2" fill="none" stroke-linecap="round" stroke-miterlimit="4"></path><path d="M4.005,509.091C4.005,509.091,14.751,544.791,26.756,557.576C39.587,571.241,53.759,579.686,80.402,587C141.477,603.766,328.374,587.036,401.739,597.98C440.951,603.829,465.587,610.821,490.452,621.771C510.71,630.692,531.795,642.816,541.855,654.545C548.487,662.277,552.985,670.249,552.529,678.788C551.989,688.918,545.728,699.669,533.963,711.111C508.166,736.198,376.148,796,376.148,796" stroke="#71717a" stroke-width="2" fill="none" stroke-linecap="round" stroke-miterlimit="4"></path><path d="M4,9.767C4,9.767,176.376,13.638,233.166,11.321C266.869,9.946,313.568,4.2,313.568,4.2" stroke="#71717a" stroke-width="2" fill="none" stroke-linecap="round" stroke-miterlimit="4"></path><path d="M4.442,581.818C4.442,581.818,26.85,599.014,40.201,604.462C54.614,610.344,66.556,612.805,88.442,614.765C133.508,618.803,242.586,607.053,297.487,608.134C333.234,608.837,358.152,609.641,385.93,614.431C411.493,618.84,438.522,625.023,458.291,634.496C474.13,642.086,490.679,652.138,497.428,662.626C502.262,670.137,504.293,678.701,502.243,686.869C499.576,697.496,489.671,707.653,475.68,719.192C448.209,741.847,333.863,796,333.863,796" stroke="#71717a" stroke-width="2" fill="none" stroke-linecap="round" stroke-miterlimit="4"></path><path d="M1141.626,4C1141.626,4,1083.733,76.56,1068.84,105.051C1059.272,123.356,1052.326,136.655,1051.739,153.535C1051.111,171.57,1056.586,190.045,1067.365,210.101C1083.323,239.793,1133.076,280.992,1151.864,307.071C1163.207,322.815,1172.517,335.306,1175.638,347.475C1177.882,356.228,1177.078,364.707,1174.916,371.717C1172.994,377.951,1170.509,382.374,1164.593,387.879C1153.462,398.235,1128.576,412.698,1104.916,420.202C1074.974,429.699,1025.8,433.276,996.985,432.983C977.695,432.787,964.619,430.216,948.744,426.273C932.447,422.225,915.416,416.348,900.503,408.734C885.998,401.33,872.442,391.854,860.302,381.508C848.363,371.335,838.853,363.164,828.141,347.301C810.7,321.473,792.24,260.379,775.88,234.343C766.122,218.814,760.996,210.601,747.739,200.154C729.037,185.418,696.982,170.787,668.489,161.616C638.279,151.893,597.801,146.763,570.854,144.842C552.047,143.5,538.585,144.079,522.613,146.181C506.422,148.312,494.945,149.695,474.372,157.678C431.889,174.163,355.755,231.788,289.447,260.233C219.196,290.369,112.449,312.528,62.982,331.313C38.066,340.775,8.04,355.964,8.04,355.964" stroke="#71717a" stroke-width="2" fill="none" stroke-linecap="round" stroke-miterlimit="4"></path><path d="M4,19.642C4,19.642,234.055,26.956,289.447,24.37C312.286,23.303,322.54,22.586,337.688,19.048C351.911,15.726,377.889,4.417,377.889,4.417" stroke="#71717a" stroke-width="2" fill="none" stroke-linecap="round" stroke-miterlimit="4"></path><path d="M4,332.779C4,332.779,215.805,273.394,273.367,249.986C301.981,238.349,311.639,232.16,335.317,218.182C369.863,197.789,425.657,149.736,458.291,135.439C477.168,127.169,489.712,125.968,506.533,123.962C524.453,121.826,540.511,121.849,562.814,123.75C596.12,126.588,648.446,134.256,686.435,145.455C720.993,155.642,759.178,169.349,782.121,185.859C798.646,197.749,807.297,208.316,817.764,226.263C832.798,252.04,840.75,307.078,854.113,331.313C862.267,346.102,869.896,353.862,879.969,363.636C890.565,373.919,901.144,383.411,916.583,391.165C937.466,401.653,969.279,412.121,996.985,414.821C1025.506,417.6,1060.841,414.147,1085.427,406.673C1104.99,400.727,1125.296,391.548,1134.819,379.798C1142.195,370.698,1145.705,358.575,1144.455,347.475C1142.989,334.455,1132.959,322.679,1121.644,307.071C1102.605,280.807,1048.947,238.569,1033.005,210.101C1023.125,192.459,1018.116,178.234,1019.04,161.616C1020.057,143.315,1030.522,125.767,1042.391,105.051C1059.479,75.225,1119.057,4,1119.057,4" stroke="#71717a" stroke-width="2" fill="none" stroke-linecap="round" stroke-miterlimit="4"></path><path d="M4,624.656C4,624.656,52.674,638.019,88.442,640.52C149.395,644.783,281.86,625.196,337.688,629.029C366.274,630.992,383.416,634.463,402.01,640.946C417.648,646.397,434.715,653.358,442.884,662.626C448.998,669.563,452.864,678.985,452.056,686.869C451.205,695.168,446.202,702.015,436.653,711.111C413.315,733.344,287.522,796,287.522,796" stroke="#71717a" stroke-width="2" fill="none" stroke-linecap="round" stroke-miterlimit="4"></path><path d="M4,29.728C4,29.728,283.736,48.684,345.729,42.528C369.341,40.183,380.634,38.076,393.97,30.957C405.907,24.585,423.183,4,423.183,4" stroke="#71717a" stroke-width="2" fill="none" stroke-linecap="round" stroke-miterlimit="4"></path><path d="M1096.491,4C1096.491,4,1014.972,96.222,994.031,129.293C981.972,148.338,971.401,162.266,970.998,177.778C970.634,191.775,977.465,203.677,987.679,218.182C1004.633,242.26,1056.99,277.39,1077.009,298.99C1088.674,311.576,1097.979,319.828,1102.066,331.313C1105.7,341.525,1107.545,354.635,1102.851,363.636C1097.38,374.125,1079.724,382.775,1066.252,387.879C1052.524,393.08,1035.73,394.017,1021.106,394.209C1007.328,394.39,995.423,394.081,980.905,389.644C961.467,383.704,932.941,371.029,916.583,356.146C901.896,342.784,892.271,327.189,884.814,307.071C875.165,281.041,884.345,233.025,871.597,210.101C861.92,192.698,847.792,185.193,828.141,174.144C797.499,156.916,745.569,141.377,698.537,129.293C644.881,115.507,565.096,102.635,522.613,99.128C498.757,97.158,482.34,97.042,466.332,99.414C453.971,101.246,447.116,101.931,434.171,108.981C407.443,123.537,359.736,178.482,325.529,202.02C298.884,220.355,282.785,229.798,249.246,243.419C192.26,266.562,8.04,311.297,8.04,311.297" stroke="#71717a" stroke-width="2" fill="none" stroke-linecap="round" stroke-miterlimit="4"></path><path d="M4,669.024C4,669.024,43.013,671.184,72.362,670.156C125.717,668.288,245.282,648.876,297.487,650.625C325.506,651.564,345.263,654.26,361.809,660.579C373.666,665.108,385.957,670.882,389.839,678.788C393.151,685.532,391.489,695.593,387.85,703.03C383.431,712.06,374.483,718.169,361.43,727.273C334.721,745.9,227.963,796,227.963,796" stroke="#71717a" stroke-width="2" fill="none" stroke-linecap="round" stroke-miterlimit="4"></path><path d="M58.592,796L4.29,767.677" stroke="#71717a" stroke-width="2" fill="none" stroke-linecap="round" stroke-miterlimit="4"></path><path d="M4,40.141C4,40.141,105.051,41.522,152.764,45.169C197.277,48.571,245.523,53.104,281.407,60.52C308.016,66.019,336.135,70.335,349.691,80.808C358.241,87.413,363.898,95.131,364.356,105.051C365.038,119.827,350.95,144.234,336.908,161.616C319.937,182.624,291.59,202.657,264.556,218.182C235.924,234.624,205.554,244.785,168.844,256.3C121.791,271.06,4,294.707,4,294.707" stroke="#71717a" stroke-width="2" fill="none" stroke-linecap="round" stroke-miterlimit="4"></path><path d="M1073.62,4C1073.62,4,993.366,92.48,964.824,115.513C949.071,128.226,938.555,135.232,924.623,140.732C911.681,145.841,904.655,148.723,884.422,148.536C821.616,147.954,557.887,92.193,498.492,66.169C478.521,57.419,468.05,51.536,462.068,40.404C456.662,30.346,460.934,4,460.934,4" stroke="#71717a" stroke-width="2" fill="none" stroke-linecap="round" stroke-miterlimit="4"></path><path d="M110.835,703.03C137.812,694.63,179.449,689.424,209.045,686.995C233.168,685.016,258.38,682.29,275.154,686.869C286.771,690.04,300.824,696.078,302.433,703.03C303.973,709.679,293.951,719.892,286.519,727.273C277.298,736.431,264.775,744.072,249.034,751.515C226.359,762.237,189.032,777.658,160.804,779.712C135.622,781.545,104.973,774.615,88.079,767.677C77.668,763.401,69.939,758.541,65.217,751.515C60.766,744.891,56.212,734.267,59.594,727.273C64.7,716.717,90.474,709.371,110.835,703.03" stroke="#71717a" stroke-width="2" fill="none" stroke-linecap="round" stroke-miterlimit="4"></path><path d="M972.864,287.187C983.377,285.883,1000.213,292.798,1011.658,298.99C1022.707,304.967,1035.787,314.051,1040.65,323.232C1044.555,330.604,1046.735,341.734,1043.08,347.475C1038.904,354.034,1023.657,357.667,1013.065,357.99C1001.397,358.347,986.018,353.718,975.924,347.475C966.622,341.72,957.368,332.021,953.845,323.232C950.815,315.675,949.951,305.026,953.268,298.99C956.489,293.127,964.968,288.166,972.864,287.187" stroke="#71717a" stroke-width="2" fill="none" stroke-linecap="round" stroke-miterlimit="4"></path><path d="M4,51.143C4,51.143,97.137,52.639,138.902,56.566C175.456,60.002,212.518,64.141,241.206,71.746C263.127,77.557,284.751,83.405,297.487,93.637C306.923,101.218,313.977,111.926,315.876,121.212C317.514,129.223,314.491,137.678,311.348,145.455C307.937,153.894,303.681,161.089,295.343,169.697C281.166,184.334,252.18,204.981,226.767,218.182C199.648,232.269,169.964,240.959,136.683,250.326C97.065,261.477,4,278.049,4,278.049" stroke="#71717a" stroke-width="2" fill="none" stroke-linecap="round" stroke-miterlimit="4"></path><path d="M1050.102,4C1050.102,4,1021.649,37.79,1005.025,52.669C987.951,67.951,966.49,84.066,948.744,94.262C934.709,102.326,922.843,107.615,908.543,111.571C893.463,115.741,880.253,117.967,860.302,118.03C827.735,118.134,776.652,109.687,731.658,101.635C681.049,92.578,610.223,77.762,571.811,64.646C548.959,56.844,532.131,51.665,519.043,40.404C507.712,30.654,495.174,4,495.174,4" stroke="#71717a" stroke-width="2" fill="none" stroke-linecap="round" stroke-miterlimit="4"></path><path d="M4,62.893C4,62.893,84.522,64.455,120.603,68.274C152.224,71.622,184.114,75.551,209.045,82.985C228.53,88.794,247.991,94.442,259.163,105.051C268.246,113.675,275.768,126.092,275.439,137.374C275.065,150.187,263.164,166.082,252.049,177.778C239.359,191.131,220.603,201.295,201.005,210.907C177.82,222.277,150.205,230.998,120.603,239.008C85.643,248.469,4,261.714,4,261.714" stroke="#71717a" stroke-width="2" fill="none" stroke-linecap="round" stroke-miterlimit="4"></path><path d="M1025.518,4C1025.518,4,996.776,34.757,980.905,47.059C965.737,58.815,949.218,69.111,932.663,76.708C917.007,83.892,900.689,88.91,884.422,92.127C868.52,95.271,855.321,96.246,836.181,96.048C807.981,95.756,766.971,91.117,731.658,85.372C694.656,79.353,651,70.427,619.095,60.115C594.249,52.084,570.81,43.779,554.774,32.579C542.759,24.187,527.83,4,527.83,4" stroke="#71717a" stroke-width="2" fill="none" stroke-linecap="round" stroke-miterlimit="4"></path><path d="M4,75.892C4,75.892,130.455,82.53,168.844,92.291C190.695,97.846,207.114,103.865,218.302,113.131C226.541,119.955,233.473,128.447,234.399,137.374C235.412,147.136,229.259,159.947,221.508,169.697C211.618,182.139,192.784,192.945,174.963,202.02C154.518,212.432,130.374,219.722,104.523,226.547C74.263,234.536,4,244.96,4,244.96" stroke="#71717a" stroke-width="2" fill="none" stroke-linecap="round" stroke-miterlimit="4"></path><path d="M999.317,4C999.317,4,977.85,25.237,964.824,34.374C950.573,44.37,936.104,54.011,916.583,60.815C890.544,69.89,850.879,75.941,820.101,77.312C792.161,78.556,767.009,74.798,739.698,70.839C710.789,66.649,677.158,59.833,651.256,52.214C630.11,45.995,610.941,39.669,594.975,30.736C581.352,23.115,560.209,4,560.209,4" stroke="#71717a" stroke-width="2" fill="none" stroke-linecap="round" stroke-miterlimit="4"></path><path d="M4,90.877C4,90.877,104.974,97.189,135.219,105.051C152.159,109.454,164.128,113.492,173.339,121.212C181.036,127.664,188.579,137.223,189.105,145.455C189.613,153.395,183.823,162.394,177.424,169.697C169.224,179.055,154.809,187.023,140.481,193.939C123.337,202.215,101.844,208.427,80.402,213.764C56.669,219.671,4,226.812,4,226.812" stroke="#71717a" stroke-width="2" fill="none" stroke-linecap="round" stroke-miterlimit="4"></path><path d="M970.606,4C970.606,4,926.756,36.344,900.503,45.701C871.792,55.933,838.502,59.936,804.02,60.096C764.23,60.28,712.709,53.159,675.377,42.12C644.262,32.919,593.595,4,593.595,4" stroke="#71717a" stroke-width="2" fill="none" stroke-linecap="round" stroke-miterlimit="4"></path><path d="M4,110.019C4,110.019,74.557,114.589,96.482,121.501C109.707,125.67,120.826,130.73,126.441,137.374C130.419,142.082,132.55,148.331,131.792,153.535C130.976,159.134,125.894,164.852,120.518,169.697C113.52,176.004,104.09,181.041,91.296,185.859C70.367,193.738,4,204.923,4,204.923" stroke="#71717a" stroke-width="2" fill="none" stroke-linecap="round" stroke-miterlimit="4"></path><path d="M937.83,4C937.83,4,898.817,26.735,876.382,33.305C851.905,40.471,823.762,43.294,795.98,43.382C766.109,43.477,731.678,39.477,702.963,32.323C676.705,25.782,629.934,4,629.934,4" stroke="#71717a" stroke-width="2" fill="none" stroke-linecap="round" stroke-miterlimit="4"></path><path d="M4,150.753C4,150.753,13.95,151.798,14.351,153.535C14.805,155.501,4,162.545,4,162.545" stroke="#71717a" stroke-width="2" fill="none" stroke-linecap="round" stroke-miterlimit="4"></path><path d="M897.443,4C897.443,4,862.434,17.835,844.221,21.563C825.937,25.306,807.317,26.559,787.94,26.363C767.205,26.153,743.608,23.644,723.618,19.563C705.507,15.865,672.858,4,672.858,4" stroke="#71717a" stroke-width="2" fill="none" stroke-linecap="round" stroke-miterlimit="4"></path><path d="M832.82,4L739.698,4.102" stroke="#71717a" stroke-width="2" fill="none" stroke-linecap="round" stroke-miterlimit="4"></path></svg>